<?xml version="1.0" encoding="UTF-8" standalone="no"?>
<svg width="500px" height="500px" viewBox="-500 -500 1000 1000" version="1.1" xmlns="http://www.w3.org/2000/svg" xmlns:xlink="http://www.w3.org/1999/xlink">
	<defs>
		<linearGradient x1="50%" y1="0%" x2="50%" y2="100%" id="linearGradient-3">
			<stop stop-color="#82F9EE" offset="0%"></stop>
			<stop stop-color="#3E7671" offset="100%"></stop>
		</linearGradient>
	</defs>
	<!--
	<line x1="0" x2="0" y1="-1000" y2="1000" stroke="#000" />
	<line y1="0" y2="0" x1="-1000" x2="1000" stroke="#000" />
	<circle r="400" cx="0" cy="0" stroke="#000" fill="none" />
	-->
	<g transform="translate(-634,-641),scale(8)">
		<g transform="translate(28.000000, 15.000000)">
			<g transform="translate(0.665265, 24.986523)" fill="#28506E">
				<path d="M82.8848643,0.0907388763 L18.3375389,0.0907388763 L0,31.4907317 L50.6112016,91.7031397 L101.222403,31.4933366 L82.8848643,0.0907388763 L82.8848643,0.0907388763 Z M71.9946376,33.7678867 L51.6669394,85.1049957 L31.509331,33.7678867 L71.9946376,33.7678867 L71.9946376,33.7678867 Z M33.2922083,29.9388175 L51.6640445,6.34390651 L70.0358808,29.9388175 L33.2922083,29.9388175 L33.2922083,29.9388175 Z M55.4804782,5.27153797 L81.0202733,5.27153797 L73.8118197,28.8149148 L55.4804782,5.27153797 L55.4804782,5.27153797 Z M29.7021076,28.5669461 L23.6567604,5.27153797 L47.8407402,5.27153797 L29.7021076,28.5669461 L29.7021076,28.5669461 Z M28.1149522,33.7678867 L45.8764609,79.0062546 L7.85054226,33.7678867 L28.1149522,33.7678867 L28.1149522,33.7678867 Z M75.4082731,33.7678867 L95.4759689,33.7678867 L57.5341338,78.9066588 L75.4082731,33.7678867 L75.4082731,33.7678867 Z M76.1113503,30.9482849 L83.1539782,7.94768359 L96.5852274,30.9482849 L76.1113503,30.9482849 L76.1113503,30.9482849 Z M20.8596764,6.31861095 L27.3265306,31.2300993 L6.30612245,31.2300993 L20.8596764,6.31861095 L20.8596764,6.31861095 Z"></path>
			</g>
			<g transform="translate(7.357143, 29.983827)">
				<path d="M14.1887755,1.66576819 L0,26.097035 L21.0204082,26.097035 L14.1887755,1.66576819 Z" id="Path-558" fill="#96D8E0"></path>
				<path d="M1.57653061,28.8733154 L21.5459184,28.8733154 L40.4642857,76.0700809 L1.57653061,28.8733154 Z" id="Path-559" fill="url(#linearGradient-3)"></path>
				<path d="M16.8163265,0 L23.122449,23.8760108 L41.5153061,0 L16.8163265,0 Z" id="Path-560" fill="#B9FAFA"></path>
				<path d="M45.1938776,1.11051213 L26.8010204,24.9865229 L63.5867347,24.9865229 L45.1938776,1.11051213 Z" id="Path-561" fill="#82F9EE"></path>
				<path d="M48.3469388,0 L74.622449,0 L67.2653061,23.8760108 L48.3469388,0 Z" id="Path-562" fill="#B9FAFA"></path>
				<path d="M76.7244898,2.22102426 L69.3673469,26.097035 L89.8622449,26.097035 L76.7244898,2.22102426 Z" id="Path-563" fill="#97D9E0"></path>
				<path d="M25.2244898,28.8733154 L65.1632653,28.8733154 L45.1938776,79.9568733 L25.2244898,28.8733154 Z" id="Path-564" fill="#82F9EE"></path>
				<path d="M68.8418367,28.8733154 L88.8112245,28.8733154 L50.9744898,73.8490566 L68.8418367,28.8733154 Z" id="Path-565" fill="url(#linearGradient-3)"></path>
			</g>
		</g>
	</g>
</svg>