<?xml version="1.0" encoding="UTF-8" standalone="no"?>
<svg width="100px" height="100px" viewBox="-50 -50 100 100" version="1.1" xmlns="http://www.w3.org/2000/svg" xmlns:xlink="http://www.w3.org/1999/xlink" xmlns:sketch="http://www.bohemiancoding.com/sketch/ns">
    <!-- Generator: Sketch 3.3.2 (12043) - http://www.bohemiancoding.com/sketch -->
    <title>logo_03</title>
    <desc>Created with Sketch.</desc>
    <defs></defs>
    <g id="Home" stroke="none" stroke-width="1" fill="none" fill-rule="evenodd" sketch:type="MSPage" transform="scale(0.7368)">
        <g id="1920*1080" sketch:type="MSArtboardGroup" transform="translate(-1069.500000, -1204.000000)">
            <g id="數位課程-copy-+-ebook19-copy" sketch:type="MSLayerGroup" transform="translate(1021.125000, 1167.000000)">
                <g id="logo_03" transform="translate(0.875000, 0.000000)" sketch:type="MSShapeGroup">
                    <g id="noun_64954" transform="translate(0.000000, 22.000000)">
                        <g id="Group">
                            <path d="M48.3,42.4 L22.3,30 C22.3,30 18.6,35.8 18.6,42.7 C30.1,44.8 44.3,51.5 48.2,57.4 L48.2,57.4 C52.2,51.6 66.3,44.8 77.8,42.7 C77.8,35.8 74.1,30 74.1,30 L48.3,42.4 L48.3,42.4 Z" id="Shape" fill="#F1DABD"></path>
                            <path d="M14.1,24.4 L48.4,39.7 L94.9,18.4 L48.4,0.7 L0.7,18.4 L11.9,23.4 L11.9,45.4 C11,45.8 10.4,46.7 10.4,47.8 L10.4,58 C10.4,58.7 10.9,59.2 11.6,59.2 L14.4,59.2 C15.1,59.2 15.6,58.7 15.6,58 L15.6,47.7 C15.6,46.7 15,45.8 14.1,45.4 L14.1,24.4 Z" id="Shape" stroke="#F1DABD"></path>
                        </g>
                    </g>
                    <g id="Group-Copy-5" transform="translate(24.727723, 0.607861)" fill="#F1DABD">
                        <g id="noun_82507_cc">
                            <g id="Group">
                                <path d="M22.5495148,1.11239124 C15.5730811,1.11239124 9.90030389,6.90023002 9.90030389,14.0120812 C9.90030389,17.5870987 11.786119,20.4453645 13.446917,22.9627363 C14.7293795,24.9009101 15.8391334,26.5759376 15.8391334,28.1538954 C15.8391334,28.5867987 16.1822959,28.9378138 16.6070777,28.9378138 C17.0318596,28.9378138 17.3808842,28.5867987 17.3808842,28.1538954 C17.3808842,26.0947295 16.0875993,24.1455146 14.7248701,22.0817482 C13.107362,19.6375238 11.4379963,17.1114111 11.4379963,14.0120812 C11.4379963,7.7669567 16.4230958,2.68114811 22.5499657,2.68114811 C28.112988,2.68114811 32.7363125,6.88050801 33.5346529,12.3325468 C33.6149226,12.8807261 33.6565239,13.4415693 33.6565239,14.0120812 C33.6565239,17.1114111 31.9821978,19.6370637 30.36965,22.0817482 C29.00647,24.1455146 27.7190472,26.0951895 27.7190472,28.1538954 C27.7190472,28.5867987 28.0626605,28.9378138 28.4874424,28.9378138 C28.9117734,28.9378138 29.2567395,28.5867987 29.2567395,28.1538954 C29.2567395,26.5759376 30.3646897,24.9009101 31.6471522,22.9627363 C33.3079502,20.4453645 35.1942163,17.5875588 35.1942163,14.0120812 C35.1942163,6.90023002 29.5196353,1.11239124 22.5495148,1.11239124 L22.5495148,1.11239124 Z" id="Shape"></path>
                                <circle id="Oval-64" cx="22.5" cy="13.5" r="11.5"></circle>
                                <path d="M9.28207039,5.15389539 C9.41915498,5.25464546 9.57968827,5.3029503 9.73526125,5.3029503 C9.97561023,5.3029503 10.2069405,5.19253925 10.3575532,4.98045805 C10.6073718,4.62944294 10.5316145,4.13857386 10.1880012,3.88324832 L5.38192334,0.317891789 C5.0374081,0.0630263026 4.55671013,0.144454445 4.30644055,0.495929593 C4.0566219,0.84280428 4.13237918,1.33275328 4.47644349,1.59313931 L9.28207039,5.15389539 L9.28207039,5.15389539 Z" id="Shape"></path>
                                <path d="M35.358808,5.3029503 C35.5152828,5.3029503 35.6753652,5.25464546 35.8129007,5.15389539 L40.6180767,1.59313931 C40.9625919,1.33275328 41.0383492,0.84280428 40.7871777,0.495929593 C40.5373591,0.144454445 40.0562102,0.0630263026 39.7116949,0.317891789 L34.9056171,3.88324832 C34.5620037,4.13857386 34.4866974,4.62944294 34.736516,4.98045805 C34.8880306,5.19253925 35.1189099,5.3029503 35.358808,5.3029503 L35.358808,5.3029503 Z" id="Shape"></path>
                                <path d="M44.325674,13.2277028 L38.3868444,13.2277028 C37.9580041,13.2277028 37.6139398,13.5787179 37.6139398,14.0116212 C37.6139398,14.450045 37.9580041,14.8010601 38.3868444,14.8010601 L44.325674,14.8010601 C44.749103,14.8010601 45.0936183,14.450045 45.0936183,14.0116212 C45.0936183,13.5791779 44.749103,13.2277028 44.325674,13.2277028 L44.325674,13.2277028 Z" id="Shape"></path>
                                <path d="M7.48103127,14.0120812 C7.48103127,13.5791779 7.13651603,13.2281628 6.71173414,13.2281628 L0.768846192,13.2281628 C0.34496618,13.2277028 0,13.5791779 0,14.0120812 C0,14.4505051 0.34496618,14.8015202 0.768846192,14.8015202 L6.71173414,14.8015202 C7.13651603,14.8010601 7.48103127,14.450045 7.48103127,14.0120812 L7.48103127,14.0120812 Z" id="Shape"></path>
                                <path d="M35.8129007,22.8753275 C35.4670326,22.620462 34.9858837,22.6968297 34.736516,23.0487649 C34.4866974,23.40024 34.5620037,23.8906491 34.9056171,24.1455146 L39.7116949,27.7062706 C39.8492305,27.8079408 40.0097637,27.860386 40.1648858,27.860386 C40.4011764,27.860386 40.637016,27.7449145 40.7871777,27.5332933 C41.0383492,27.1818182 40.9625919,26.6909491 40.6180767,26.4360836 L35.8129007,22.8753275 L35.8129007,22.8753275 Z" id="Shape"></path>
                                <path d="M9.28207039,22.8753275 L4.47644349,26.4360836 C4.13192824,26.6909491 4.0566219,27.1818182 4.30644055,27.5332933 C4.45840604,27.7449145 4.69289285,27.860386 4.92873248,27.860386 C5.08881482,27.860386 5.24483874,27.8079408 5.38192334,27.7062706 L10.1880012,24.1455146 C10.5320655,23.8906491 10.6073718,23.40024 10.3575532,23.0487649 C10.1072836,22.6968297 9.62613469,22.620462 9.28207039,22.8753275 L9.28207039,22.8753275 Z" id="Shape"></path>
                                <path d="M13,21.4005111 C13,21.4005111 16.2311716,25.5307438 16.2311716,28.9378138 C22.3497871,28.9378139 25.988499,29.0059629 27.7722769,28.9378138 C29.0615783,28.8885562 29.2722769,28.6967596 29.2722769,28.6967596 C29.2722769,28.6967596 30.7337492,21.8644384 31.2722778,21.4005111 C31.8108064,20.9365839 13,21.4005111 13,21.4005111 Z" id="Path-447"></path>
                            </g>
                        </g>
                        <rect id="Rectangle-211" x="16.2337026" y="31.2831283" width="13.5280855" height="3.22032203"></rect>
                        <rect id="Rectangle-211-Copy" x="16.2337026" y="35.8835884" width="13.5280855" height="1.38013801"></rect>
                        <rect id="Rectangle-211-Copy-2" x="16.2337026" y="38.6438644" width="13.5280855" height="1.38013801"></rect>
                        <rect id="Rectangle-211-Copy-3" x="16.2337026" y="41.4041404" width="13.5280855" height="1.38013801"></rect>
                    </g>
                </g>
            </g>
        </g>
    </g>
</svg>