<?xml version="1.0" encoding="utf-8"?>
<!DOCTYPE svg PUBLIC "-//W3C//DTD SVG 1.1//EN" "http://www.w3.org/Graphics/SVG/1.1/DTD/svg11.dtd">
<svg version="1.1" xmlns="http://www.w3.org/2000/svg" xmlns:xlink="http://www.w3.org/1999/xlink" viewBox="-4 2 1320 220" xml:space="preserve">
<g>
	<g>
		<g>
			<path fill="#272929" d="M31.7,15h51.6c9.9,0,14.5,1.2,21.6,3.6c7.1,2.4,12.9,5.8,17.5,10.1c4.6,4.3,8,9.5,10.2,15.5
				c2.2,6,3.4,12.6,3.4,19.8c0,10.5-3,19.6-9,27.2c-6,7.6-14.2,12.8-24.5,15.6l3.9,0.6c11.1,1.5,20,6.4,27.1,14.8
				c7.1,8.4,10.6,19.4,10.6,33c0,6.6-1.2,13.1-3.6,19.5c-2.4,6.4-6.3,12-11.5,17c-5.3,5-11.9,8.9-19.8,11.9c-8,3-13.5,4.4-24.6,4.4
				H31.7V15z M53.6,98.4h22.7c14.4,0,21-2.9,27.7-8.7c6.7-5.8,10.1-14,10.1-24.5c0-8.3-2.9-15.4-8.6-21.4s-15.3-9-28.7-9H53.6V98.4z
				 M53.6,188h25.5c6.8,0,16.5-0.9,21.4-2.8c5-1.8,9-4.4,12.2-7.6c3.2-3.2,5.6-6.9,7.1-11c1.6-4.1,2.3-8.5,2.3-13.1
				c0-9.9-3-18.3-8.9-25c-5.9-6.7-22.8-10.1-35.3-10.1H53.6V188z"/>
		</g>
	</g>
	<g>
		<path fill="#272929" d="M173.4,113.2c0-33.3,5.9-58.4,17.8-75.1c11.9-16.8,28.4-25.1,49.8-25.1c10,0,19,2.2,27.1,6.6
			c8.1,4.4,15,10.8,20.6,19.2c5.7,8.4,10.1,18.5,13.1,30.4s4.6,25.3,4.6,40.2c0,33.3-5.9,58.4-17.8,75.1
			c-11.9,16.8-28.4,25.1-49.8,25.1c-10,0-19-2.2-27.1-6.6c-8.1-4.4-15-10.8-20.6-19.2c-5.7-8.4-10.1-18.5-13.1-30.4
			S173.4,128.1,173.4,113.2z M197.1,113.2c0,9.8,0.7,19.2,2.2,28.5c1.5,9.2,3.9,17.4,7.2,24.4c3.4,7.1,7.7,12.8,13,17.1
			c5.3,4.3,11.8,6.5,19.3,6.5c5.8,0,11.4-1.4,16.8-4.1c5.3-2.8,10-7.3,14.1-13.7c4-6.4,7.2-14.6,9.5-24.9
			c2.3-10.2,3.5-22.8,3.5-37.7c0-9.8-0.7-19.2-2.2-28.5c-1.5-9.2-3.9-17.4-7.2-24.4c-3.4-7.1-7.7-12.8-13-17.1
			c-5.3-4.3-11.8-6.5-19.3-6.5c-6,0-11.6,1.4-16.9,4.1c-5.2,2.8-9.9,7.3-13.9,13.7c-4,6.4-7.2,14.6-9.5,24.9
			C198.3,85.7,197.1,98.3,197.1,113.2z"/>
		<path fill="#272929" d="M336.9,113.2c0-33.3,5.9-58.4,17.8-75.1c11.9-16.8,28.4-25.1,49.8-25.1c10,0,19,2.2,27.1,6.6
			c8.1,4.4,15,10.8,20.6,19.2c5.7,8.4,10.1,18.5,13.1,30.4s4.6,25.3,4.6,40.2c0,33.3-5.9,58.4-17.8,75.1
			c-11.9,16.8-28.4,25.1-49.8,25.1c-10,0-19-2.2-27.1-6.6c-8.1-4.4-15-10.8-20.6-19.2c-5.7-8.4-10.1-18.5-13.1-30.4
			S336.9,128.1,336.9,113.2z M360.6,113.2c0,9.8,0.7,19.2,2.2,28.5c1.5,9.2,3.9,17.4,7.2,24.4c3.4,7.1,7.7,12.8,13,17.1
			c5.3,4.3,11.8,6.5,19.3,6.5c5.8,0,11.4-1.4,16.8-4.1c5.3-2.8,10-7.3,14.1-13.7c4-6.4,7.2-14.6,9.5-24.9
			c2.3-10.2,3.5-22.8,3.5-37.7c0-9.8-0.7-19.2-2.2-28.5c-1.5-9.2-3.9-17.4-7.2-24.4c-3.4-7.1-7.7-12.8-13-17.1
			c-5.3-4.3-11.8-6.5-19.3-6.5c-6,0-11.6,1.4-16.9,4.1c-5.2,2.8-9.9,7.3-13.9,13.7c-4,6.4-7.2,14.6-9.5,24.9
			C361.8,85.7,360.6,98.3,360.6,113.2z"/>
		<path fill="#272929" d="M509.9,14.8h22.7v83.7h0.5l59.6-83.7h27.1L552.2,106l73.2,101.7H596l-62.9-93.4h-0.5v93.4h-22.7V14.8z"/>
		<path fill="#272929" d="M742.2,42.7c-4.3-2.8-9.1-4.9-14.4-6.5c-5.3-1.6-10.7-2.3-16.2-2.3c-8.6,0-15.4,2.7-20.5,8.1
			c-5.1,5.4-7.6,12.3-7.6,20.6c0,3.1,0.4,6,1.2,8.7c0.8,2.7,2.2,5.4,4.4,8.1c2.1,2.8,5.2,5.7,9.2,8.7c4,3,9.2,6.6,15.7,10.6
			c6.9,4.2,12.7,8.5,17.5,12.8c4.8,4.3,8.6,8.8,11.5,13.4c2.8,4.6,4.9,9.3,6.2,14.2c1.3,4.9,1.9,10.1,1.9,15.6
			c0,7.7-1.1,14.9-3.4,21.5c-2.2,6.6-5.5,12.4-9.9,17.3c-4.4,4.9-9.8,8.8-16.4,11.6c-6.5,2.9-14.1,4.3-22.7,4.3
			c-7.2,0-14.1-0.7-20.6-2.2c-6.5-1.5-12.2-3.5-17-6.1v-25.1c5.2,3.3,10.8,6.2,17,8.7s11.9,3.7,17.3,3.7c5.2,0,9.7-0.8,13.7-2.5
			c4-1.7,7.3-3.9,9.9-6.8c2.7-2.9,4.7-6.1,6.2-9.8c1.5-3.7,2.2-7.5,2.2-11.3c0-3.7-0.3-7.1-0.9-10.2c-0.6-3.1-1.9-6.2-3.9-9.1
			c-2-2.9-4.8-6-8.5-9.3c-3.7-3.2-8.6-6.8-14.6-10.6c-8.1-5.2-14.7-9.9-19.9-14.4s-9.2-8.8-12.1-13.1c-2.9-4.3-4.9-8.9-6.1-13.7
			c-1.1-4.8-1.7-10.3-1.7-16.6c0-7.9,1.3-14.9,4-21c2.7-6.1,6.3-11.1,10.8-15.2c4.6-4,9.8-7.1,15.9-9.1c6-2,12.5-3,19.3-3
			c6,0,11.9,0.6,17.8,1.8c5.8,1.2,10.7,2.7,14.7,4.6V42.7z"/>
		<path fill="#272929" d="M800.2,14.8h22.7v82.3h62.9V14.8h22.7v192.8h-22.7v-89.5h-62.9v89.5h-22.7V14.8z"/>
		<path fill="#272929" d="M954.6,113.2c0-33.3,5.9-58.4,17.8-75.1c11.9-16.8,28.4-25.1,49.8-25.1c10,0,19,2.2,27.1,6.6
			c8.1,4.4,15,10.8,20.6,19.2c5.7,8.4,10.1,18.5,13.1,30.4s4.6,25.3,4.6,40.2c0,33.3-5.9,58.4-17.8,75.1
			c-11.9,16.8-28.4,25.1-49.8,25.1c-10,0-19-2.2-27.1-6.6c-8.1-4.4-15-10.8-20.6-19.2c-5.7-8.4-10.1-18.5-13.1-30.4
			S954.6,128.1,954.6,113.2z M978.3,113.2c0,9.8,0.7,19.2,2.2,28.5c1.5,9.2,3.9,17.4,7.2,24.4c3.4,7.1,7.7,12.8,13,17.1
			c5.3,4.3,11.8,6.5,19.3,6.5c5.8,0,11.4-1.4,16.8-4.1c5.3-2.8,10-7.3,14.1-13.7c4-6.4,7.2-14.6,9.5-24.9
			c2.3-10.2,3.5-22.8,3.5-37.7c0-9.8-0.7-19.2-2.2-28.5c-1.5-9.2-3.9-17.4-7.2-24.4c-3.4-7.1-7.7-12.8-13-17.1
			c-5.3-4.3-11.8-6.5-19.3-6.5c-6,0-11.6,1.4-16.9,4.1c-5.2,2.8-9.9,7.3-13.9,13.7c-4,6.4-7.2,14.6-9.5,24.9
			C979.5,85.7,978.3,98.3,978.3,113.2z"/>
		<path fill="#272929" d="M1109.8,14.8h20.6l25.6,156.4h0.4l28-156.4h25.1l28,156.4h0.4l27.4-156.4h18.8l-34.1,192.8h-23.3
			l-29.6-165.2h-0.4l-29.6,165.2h-23.3L1109.8,14.8z"/>
	</g>
</g>
</svg>
