<?xml version="1.0" encoding="UTF-8" standalone="no"?>
<svg width="500px" height="500px" viewBox="-500 -500 1000 1000" version="1.1" xmlns="http://www.w3.org/2000/svg" xmlns:xlink="http://www.w3.org/1999/xlink">
	<defs>
		<linearGradient x1="100%" y1="10.957388%" x2="0%" y2="93.868772%" id="linearGradient-3">
			<stop stop-color="#EF8D8C" offset="0%"></stop>
			<stop stop-color="#DE5250" offset="100%"></stop>
		</linearGradient>
		<linearGradient x1="100%" y1="50%" x2="0%" y2="69.3115468%" id="linearGradient-4">
			<stop stop-color="#EF8B8A" offset="0%"></stop>
			<stop stop-color="#DD504D" offset="100%"></stop>
		</linearGradient>
	</defs>
	<!--
	<line x1="0" x2="0" y1="-1000" y2="1000" stroke="#000" />
	<line y1="0" y2="0" x1="-1000" x2="1000" stroke="#000" />
	<circle r="400" cx="0" cy="0" stroke="#000" fill="none" />
	-->
	<g transform="translate(-634,-641),scale(8)">
		<g transform="translate(39.000000, 23.389892)">
			<path d="M78.1818149,3.90909083 C75.2499968,5.47790646 60.5909096,17.2051794 40.7440554,26.9215732 C20.8972013,36.6379669 18.9868537,37.4829901 13.2038056,42.0555575 C7.42075758,46.628125 7.29943489,49.6225497 7.29943489,49.6225497 L7.29943489,82.2252841 C7.29943489,82.2252841 8.55310265,82.6826172 10.0089749,81.5091264 C13.0824829,79.0812145 24.0824065,78.5147017 38.8837742,74.6705078 C41.9572823,73.8612038 45.1925539,72.9305043 48.5491482,71.7974787 C68.0821007,65.2825817 72.1261903,54.1951172 72.1261903,54.1951172 C72.1261903,54.1951172 74.2291168,49.0965021 75.8063118,41.6913707 C77.3835067,34.3267045 78.1818149,3.90909083 78.1818149,3.90909083 Z" id="Shape" stroke="#D45250" stroke-width="4" fill="url(#linearGradient-3)"></path>
			<g id="Group" transform="translate(0.134999, 0.641335)" fill="#FFFFFF">
				<path d="M19.0600382,43.0265329 C32.1150005,35.1320261 43.5553132,30.9950569 48.7507658,28.2386009 C63.3877297,20.4729352 82.4410685,6.76608614 83.9104569,5.22230112 C84.9314632,4.1552759 85.753543,-1.57585239 80.9786387,2.290483 C79.7720186,3.80478047 54.5922751,21.450208 41.2156702,27.7369851 C34.7207995,30.789464 27.2286369,33.5632093 16.6829657,40.1160466 C6.13729443,46.6688838 5.23894469,50.1903841 2.79681958,52.1313939 C-0.828005128,55.0124176 1.68201793,57.6768216 3.77409241,56.0404848 C3.77409241,56.0404848 6.00507585,50.9210397 19.0600382,43.0265329 Z" id="Shape"></path>
				<path id="Shape" d="M7.16443625,84.1859375 L7.16443625,83.8622159 L7.16443625,84.1859375 L7.16443625,84.1859375 Z"></path>
			</g>
			<path d="M61.2880303,84.1798295 C66.2218195,86.6077415 62.2181709,88.3821023 62.2181709,88.3821023 C62.2181709,88.3821023 57.163059,91.3017045 52.0270652,92.1110085 C46.8506306,92.8798473 7.2185531,83.9370384 7.2185531,83.9370384 C7.2185531,83.856108 5.35216758,82.7011062 11.4715384,80.2485973 C17.5909091,77.7960884 40.2587647,74.7919034 40.2587647,74.7919034 C40.2587647,74.7919034 56.3542411,81.7519176 61.2880303,84.1798295 Z" id="Shape" stroke="#D45350" fill="#FAD9D9"></path>
			<path d="M62.9394158,100.365909 C62.9394158,100.365909 59.6136365,102.613637 48.8636365,104.568183 C38.1136365,106.522728 3.25534535,105.545455 3.25534535,105.545455 L3.25534535,93.8914773 C3.25534535,93.8914773 28.6819272,94.3007102 43.1705091,93.0821733 C57.6590911,91.8636364 62.3561041,85.9022728 62.9394158,87.4170455 C63.5227274,88.9318181 62.9394158,100.365909 62.9394158,100.365909 Z" id="Shape" stroke="#D45350" stroke-width="3" fill="url(#linearGradient-4)"></path>
		</g>
	</g>
</svg>