<?xml version="1.0" encoding="utf-8"?>
<!DOCTYPE svg PUBLIC "-//W3C//DTD SVG 1.1//EN" "http://www.w3.org/Graphics/SVG/1.1/DTD/svg11.dtd">
<svg version="1.1" xmlns="http://www.w3.org/2000/svg" xmlns:xlink="http://www.w3.org/1999/xlink" x="0px" y="0px"
	 viewBox="-400 -300 800 600" xml:space="preserve">
<g>
	<g>
		<path fill="#216F9B" d="
			M -335,-236
			V 205
			C -127,191, 0,255, 0,255
			V -187
			C -18,-198, -124,-289, -335,-236
			L -335,-236
			z"/>
		<path fill="#00445D" d="
			M 335,-236
			V 205
			C 127,191, 0,255, 0,255
			V -187
			C 18,-198, 124,-289, 335,-236
			L 335,-236
			z"/>
		<polygon fill="#ECD5B9" points="-320,204.5 -316,204 -316,-241 -320,-240"/>
		<polygon fill="#ECD5B9" points="320,204.5 316,204 316,-241 320,-240"/>
	</g>
	<g transform="translate(0, 14)">
		<defs>
			<linearGradient id="grad" gradientUnits="userSpaceOnUse" x1="0" y1="110.3" x2="0" y2="-77.1">
				<stop offset="0" style="stop-color:#FFFFFF;stop-opacity:0"/>
				<stop offset="0.16" style="stop-color:#E7DEDE;stop-opacity:0.11"/>
				<stop offset="0.51" style="stop-color:#AA8B8B;stop-opacity:0.36"/>
				<stop offset="1" style="stop-color:#4F0E0D;stop-opacity:0.7"/>
			</linearGradient>
			<g id="pedal">
				<path fill="#ECD5B9" d="
					M -50,-86.6025
					L -140,-138.5641
					A 196.9772,196.9772 0 0,0 -50,190.5256
					L -50,-86.6025
					z"/>
				<path opacity="0.57" fill="url(#grad)" d="
					M -50,-86.6025
					L -140,-138.5641
					A 196.9772,196.9772 0 0,0 -50,190.5256
					L -50,-86.6025
					z"/>
			</g>
		</defs>
		<g transform="scale(0.57735)">
			<circle fill="#0B3048" cx="0" cy="0" r="100" />
			<use x="0" y="0" xlink:href="#pedal" />
			<use x="0" y="0" xlink:href="#pedal" transform="rotate(120)" />
			<use x="0" y="0" xlink:href="#pedal" transform="rotate(240)" />
		</g>
	</g>
</g>
</svg>
