<?xml version="1.0" encoding="UTF-8" standalone="no"?>
<svg width="83px" height="64px" viewBox="0 0 83 64" version="1.1" xmlns="http://www.w3.org/2000/svg" xmlns:xlink="http://www.w3.org/1999/xlink" xmlns:sketch="http://www.bohemiancoding.com/sketch/ns">
    <!-- Generator: Sketch 3.3.2 (12043) - http://www.bohemiancoding.com/sketch -->
    <title>logo_02</title>
    <desc>Created with Sketch.</desc>
    <defs></defs>
    <g id="Home" stroke="none" stroke-width="1" fill="none" fill-rule="evenodd" sketch:type="MSPage">
        <g id="1920*1080" sketch:type="MSArtboardGroup" transform="translate(-1028.000000, -1029.000000)">
            <g id="演講簡報-copy-+-Group-Copy" sketch:type="MSLayerGroup" transform="translate(1028.125000, 1027.000000)">
                <g id="logo_02" transform="translate(0.000000, 2.500000)" sketch:type="MSShapeGroup">
                    <ellipse id="Oval-31" stroke="#F1DABD" stroke-width="3" cx="58.0567532" cy="25.7580591" rx="10.7423755" ry="10.475399"></ellipse>
                    <rect id="Rectangle-66" fill="#F1DABD" x="15.0872512" y="16.4465933" width="22.6783483" height="4.6557329"></rect>
                    <rect id="Rectangle-66-Copy" fill="#F1DABD" x="14.9380516" y="22.9264148" width="22.6783483" height="1.74589984"></rect>
                    <rect id="Rectangle-66-Copy-2" fill="#F1DABD" x="14.9380516" y="26.4182145" width="22.6783483" height="1.74589984"></rect>
                    <rect id="Rectangle-66-Copy-3" fill="#F1DABD" x="14.9380516" y="29.9100141" width="22.6783483" height="1.74589984"></rect>
                    <rect id="Rectangle-66-Copy-4" fill="#F1DABD" x="14.9380516" y="33.4018138" width="22.6783483" height="1.74589984"></rect>
                    <path d="M82.7815483,0 L0.50659991,0 L0.50659991,3.67365244 L6.49043228,3.67365244 L6.49043228,51.5288314 L38.2689433,51.5288314 L28.1465364,61.3860274 L30.1241101,63.311828 L41.64491,52.0929172 L53.046769,63.1976151 L55.0241038,61.2715819 L45.0206379,51.5288314 L76.7984325,51.5288314 L76.7984325,3.67365244 L82.7829813,3.67365244 L82.7829813,0 L82.7815483,0 L82.7815483,0 Z M9.2872183,48.8049367 L9.2872183,5.03583243 L74.0004522,5.03583243 L74.0004522,48.8049367 L9.2872183,48.8049367 Z" id="Shape" fill="#F1DABD"></path>
                </g>
            </g>
        </g>
    </g>
</svg>