<?xml version="1.0" encoding="UTF-8" standalone="no"?>
<svg width="88px" height="88px" viewBox="0 0 88 88" version="1.1" xmlns="http://www.w3.org/2000/svg" xmlns:xlink="http://www.w3.org/1999/xlink" xmlns:sketch="http://www.bohemiancoding.com/sketch/ns">
    <!-- Generator: Sketch 3.3.2 (12043) - http://www.bohemiancoding.com/sketch -->
    <title>logo_01</title>
    <desc>Created with Sketch.</desc>
    <defs>
        <path id="path-1" d="M36.125,60.1259921 L36.125,27.8740079 L62.8601974,44 L36.125,60.1259921 Z"></path>
    </defs>
    <g id="Home" stroke="none" stroke-width="1" fill="none" fill-rule="evenodd" sketch:type="MSPage">
        <g id="1920*1080" sketch:type="MSArtboardGroup" transform="translate(-1027.000000, -867.000000)">
            <g id="網路直播-copy" sketch:type="MSLayerGroup" transform="translate(1025.125000, 861.894700)">
                <g id="logo_01" transform="translate(1.500000, 5.000000)">
                    <g id="Triangle-1-Copy-4">
                        <use fill="#F0D9BC" fill-rule="evenodd" sketch:type="MSShapeGroup" xlink:href="#path-1"></use>
                        <use fill="none" xlink:href="#path-1"></use>
                    </g>
                    <g id="noun_49138" fill="#F0D9BC" sketch:type="MSShapeGroup">
                        <path d="M45,87.166 C21.198,87.166 1.834,67.802 1.834,44 C1.834,20.198 21.198,0.834 45,0.834 C68.802,0.834 88.166,20.198 88.166,44 C88.166,67.802 68.802,87.166 45,87.166 L45,87.166 Z M45,2.834 C22.301,2.834 3.834,21.301 3.834,44 C3.834,66.699 22.301,85.166 45,85.166 C67.699,85.166 86.166,66.699 86.166,44 C86.166,21.301 67.699,2.834 45,2.834 L45,2.834 Z" id="Shape"></path>
                        <path d="M66.273,42.3723942 C69.4500173,39.3622629 71.2040283,27.425021 71.8106958,22.433 L71.913,22.9700726 C71.296556,28.0412774 69.5149612,40.170167 66.2916801,43.2239068 L66.273,42.3723942 Z" id="Shape"></path>
                        <ellipse id="Oval" cx="68.694" cy="36.4693567" rx="2.82" ry="2.82"></ellipse>
                        <ellipse id="Oval" cx="71.514" cy="22.767" rx="2.82" ry="2.82"></ellipse>
                        <path d="M22.0699454,49.445 L22.9508945,49.616553 C20.4847145,64.9685812 26.9354584,76.6800193 31,82.2954332 L30.300493,82.907 C26.1416492,77.1619392 19.5428868,65.1768021 22.0699454,49.445 Z" id="Shape"></path>
                        <ellipse id="Oval" cx="22.345" cy="49.653" rx="2.82" ry="2.82"></ellipse>
                        <ellipse id="Oval" cx="67.488" cy="75.881" rx="2.82" ry="2.82"></ellipse>
                        <path d="M73.553,52.284 L72.803,52.263 C73.065,42.888 69.481,33.915 62.71,26.998 C55.66,19.794 45.819,15.706 35.684,15.765 L35.679,15.015 C46,14.975 56.055,19.125 63.246,26.473 C70.16,33.537 73.82,42.704 73.553,52.284 L73.553,52.284 Z" id="Shape"></path>
                        <ellipse id="Oval" cx="73.128" cy="52.131" rx="2.82" ry="2.82"></ellipse>
                        <ellipse id="Oval" cx="35.819" cy="15.442" rx="2.82" ry="2.82"></ellipse>
                        <path d="M50.399,73.061 C27.777,71.945 12.44,57.133 5.629,43.643 C0.622,33.725 -0.161,24.061 3.586,18.421 C6.004,14.781 10.161,13.06 15.595,13.438 L15.543,14.186 C10.379,13.825 6.47,15.435 4.21,18.836 C0.612,24.252 1.412,33.627 6.298,43.305 C13.013,56.607 28.135,71.211 50.436,72.311 L50.399,73.061 L50.399,73.061 Z" id="Shape"></path>
                        <ellipse id="Oval" cx="50.277" cy="72.637" rx="2.82" ry="2.82"></ellipse>
                        <path d="M18.574,77.267 C8.12,75.553 1.04,68.011 0.536,58.052 C0.052,48.472 5.949,37.083 20.215,33.234 L20.41,33.958 C6.548,37.698 0.816,48.734 1.286,58.014 C1.672,65.648 6.448,74.519 18.696,76.527 L18.574,77.267 L18.574,77.267 Z" id="Shape"></path>
                        <ellipse id="Oval" cx="20.179" cy="33.64" rx="2.82" ry="2.82"></ellipse>
                        <path d="M58.068,12.924 L57.355,12.69 C59.059,7.523 62.069,4.194 65.615,3.559 C67.798,3.165 69.944,3.91 71.21,5.497 C72.461,7.065 72.663,9.176 71.766,11.287 L71.077,10.994 C71.863,9.144 71.698,7.311 70.625,5.965 C69.531,4.594 67.662,3.955 65.748,4.298 C62.481,4.882 59.683,8.027 58.068,12.924 L58.068,12.924 Z" id="Shape"></path>
                        <path d="M68.7197674,80.2709687 L68.0067674,80.0369687 C69.7107674,74.8699687 72.7207674,71.5409687 76.2667674,70.9059687 C78.4497674,70.5119687 80.5957674,71.2569687 81.8617674,72.8439687 C83.1127674,74.4119687 83.3147674,76.5229687 82.4177674,78.6339687 L81.7287674,78.3409687 C82.5147674,76.4909687 82.3497674,74.6579687 81.2767674,73.3119687 C80.1827674,71.9409687 78.3137674,71.3019687 76.3997674,71.6449687 C73.1327674,72.2289687 70.3347674,75.3739687 68.7197674,80.2709687 L68.7197674,80.2709687 Z" id="Shape-Copy-3" transform="translate(75.488539, 75.536564) rotate(156.000000) translate(-75.488539, -75.536564) "></path>
                        <ellipse id="Oval" cx="57.771" cy="12.677" rx="2.82" ry="2.82"></ellipse>
                    </g>
                </g>
            </g>
        </g>
    </g>
</svg>