<?xml version="1.0" encoding="UTF-8" standalone="no"?>
<svg width="99px" height="91px" viewBox="0 0 99 91" version="1.1" xmlns="http://www.w3.org/2000/svg" xmlns:xlink="http://www.w3.org/1999/xlink" xmlns:sketch="http://www.bohemiancoding.com/sketch/ns">
    <!-- Generator: Sketch 3.3.2 (12043) - http://www.bohemiancoding.com/sketch -->
    <title>logo_04</title>
    <desc>Created with Sketch.</desc>
    <defs></defs>
    <g id="Home" stroke="none" stroke-width="1" fill="none" fill-rule="evenodd" sketch:type="MSPage">
        <g id="1920*1080" sketch:type="MSArtboardGroup" transform="translate(-1015.000000, -1318.000000)">
            <g id="訪談節目-copy-+-microphone112-copy" sketch:type="MSLayerGroup" transform="translate(1006.125000, 1318.000000)">
                <g id="logo_04" transform="translate(0.994995, 0.620111)" sketch:type="MSShapeGroup">
                    <g id="noun_11105_cc" transform="translate(72.350210, 35.994624) scale(-1, 1) translate(-72.350210, -35.994624) translate(38.016877, 0.000000)" fill="#F1DABD">
                        <path d="M15.305069,71.3558191 C15.2084371,71.5990441 15.2773467,71.4044641 15.255961,71.4499193 L15.2543769,71.4156285 L15.2520007,71.348642 L15.2464562,71.2146689 L15.2345752,70.9459253 L15.2131895,70.4092355 L15.1696259,69.3350584 L15.0817067,67.1882993 L14.901908,62.8939834 L14.890027,62.6252398 L14.8836905,62.495254 L14.8741857,62.3660657 C14.8599286,62.1930171 14.8393349,62.020766 14.8108205,61.8509073 C14.7545839,61.5087974 14.6674568,61.1730673 14.5533995,60.8477041 C14.3237007,60.1961802 13.9775683,59.5869216 13.5427247,59.0502318 C13.325699,58.7814882 13.0864954,58.5310861 12.8306584,58.2982282 C12.7665012,58.2408111 12.7015519,58.1825966 12.6350184,58.127572 L12.5352182,58.0446362 L12.4306657,57.9601056 C12.2928464,57.8476639 12.1526509,57.7320324 12.0172078,57.6164009 C11.4683069,57.1522798 10.9336631,56.6706147 10.4164448,56.1714054 C8.34598728,54.1761634 6.53770323,51.9026083 5.05654197,49.4296884 C3.57458865,46.9559711 2.42847082,44.2789018 1.6538314,41.496568 C0.879191978,38.7134366 0.480783361,35.8250407 0.46256587,32.9350499 C0.444348378,30.0442616 0.805529948,27.149486 1.54452645,24.3535954 C2.28352295,21.5585022 3.39954232,18.8630913 4.84902098,16.3646528 C6.29929172,13.8654168 8.08381381,11.564748 10.1344697,9.53681021 C12.1851256,7.50887239 14.5027073,5.7536655 17.0080084,4.33498623 C19.5133095,2.91471204 22.20633,1.83016803 24.9951903,1.12202458 C27.7832586,0.412286218 30.6647905,0.0797458835 33.5391938,0.123606119 C36.4143892,0.165871438 39.2840401,0.585334785 42.0507226,1.38040124 C43.4336679,1.77753574 44.7920591,2.26637801 46.110055,2.84613058 C47.4280509,3.42588316 48.7072356,4.09255874 49.9373123,4.84296751 C52.3982578,6.34139266 54.6619791,8.16916831 56.6500619,10.2617003 C56.8971861,10.5232668 57.1419341,10.7888206 57.3819298,11.0591591 L57.5601444,11.2617137 L57.738359,11.4666606 C57.8587528,11.6078108 57.9736022,11.7473661 58.0860754,11.8909087 C58.5407207,12.4634841 58.9557626,13.0703503 59.3177363,13.7075199 C59.6797099,14.3446895 59.9909914,15.01296 60.2460363,15.6987746 C60.5026653,16.3853867 60.707018,17.0887454 60.8725596,17.7976863 C61.2020585,19.217163 61.3802731,20.6525889 61.5529433,22.0752555 C61.7232372,23.499517 61.8887788,24.9166013 62.1192696,26.3209263 L62.0883791,26.2252313 L64.8019933,31.624825 L66.1603845,34.3234257 L66.8423523,35.6711312 C67.0744273,36.1376446 67.2724435,36.623297 67.4181834,37.1312783 C67.5623392,37.6384621 67.6550108,38.1679748 67.656595,38.7086519 C67.6613473,39.2485315 67.5702599,39.8011705 67.3532341,40.3115441 C67.1385846,40.8219178 66.7948284,41.2780642 66.3797864,41.6313385 L65.2368369,42.6122129 L60.6642465,46.5381027 L60.768007,46.3219914 L60.5295955,51.5118535 L60.4028651,54.1067845 L60.3347475,55.4050475 L60.2975205,56.0557739 C60.2895998,56.1610385 60.2816792,56.2814548 60.2682141,56.3946939 C60.2539569,56.5087305 60.2373236,56.6211722 60.2159378,56.7336139 C60.0456439,57.6307551 59.6575321,58.4736691 59.1110073,59.1945719 C58.5660667,59.9154747 57.8532084,60.510379 57.042926,60.9091084 C56.2342278,61.3102302 55.3368184,61.5119873 54.4457454,61.5406958 C54.3340643,61.5446831 54.2231752,61.5454805 54.111494,61.5446831 L53.7883316,61.5391009 L53.1451749,61.5287339 C52.7150837,61.5223542 52.2834084,61.5151771 51.8533172,61.5048101 C50.1281999,61.4633423 48.3991224,61.3660523 46.6835099,61.1363842 C44.9663133,60.9091084 43.264958,60.5518468 41.6079584,60.0390808 C39.9509587,59.5279097 38.3406909,58.8620316 36.8072534,58.049421 C35.2754,57.236013 33.8211689,56.2782649 32.4588174,55.2064803 C32.3835712,55.1474683 32.3708982,55.037419 32.429511,54.9616604 C32.4833714,54.891484 32.5823795,54.8755348 32.6560415,54.92099 L32.6710907,54.9305595 C34.1261139,55.8492321 35.6286609,56.6626401 37.1850683,57.3213411 C38.7367233,57.9872192 40.3366943,58.5007827 41.957259,58.8739934 C43.581784,59.2408245 45.2245265,59.4752774 46.8815261,59.578947 C47.7092339,59.629187 48.5401099,59.6618828 49.3733621,59.6642751 C50.2089905,59.6698574 51.045411,59.6507183 51.8921283,59.6196174 L54.3768358,59.5239224 C55.0247448,59.4784672 55.6172093,59.3125958 56.1280911,59.0358776 C56.639765,58.7583619 57.0746086,58.3652147 57.40886,57.8883343 C57.5759857,57.6506916 57.7169732,57.3923149 57.824694,57.1259637 C57.9324149,56.8596124 58.0084531,56.5836917 58.0472643,56.3229226 C58.0583532,56.257531 58.0638976,56.1937343 58.06865,56.130735 L58.0734024,56.083685 C58.0734024,56.0685333 58.0749865,56.0501917 58.0749865,56.043812 L58.0749865,56.0214832 L58.0765707,56.0007493 L58.0765707,55.9911797 C58.0765707,55.9927747 58.0781548,55.9720407 58.0765707,55.9927747 L58.0781548,55.9162186 L58.081323,55.2838338 L58.0829072,53.9943428 L58.0844913,51.4010067 C58.0892437,49.670521 58.0908278,47.937643 58.1003326,46.2079548 C58.1035009,45.5755699 58.3728029,45.0077792 58.80131,44.6106447 L58.9280404,44.4942157 L61.146614,42.4519236 L63.3715241,40.4152138 L64.4851673,39.4008461 L64.5065531,39.3801122 L64.5231864,39.3633656 C64.5342753,39.3522011 64.5429881,39.3418342 64.5524928,39.3306698 C64.5691262,39.3099358 64.5849675,39.2892019 64.5976405,39.2708603 C64.6221945,39.2317849 64.6412041,39.1958992 64.6562533,39.1528364 C64.6713026,39.1097737 64.6855597,39.0555465 64.6966486,38.9853701 C64.7061534,38.9151937 64.7124899,38.8290682 64.7093217,38.7253985 C64.7029852,38.5196541 64.6602137,38.2509105 64.5683341,37.9574456 C64.5247706,37.8099158 64.469326,37.6568037 64.4043767,37.5005017 C64.371902,37.4215533 64.3362591,37.3426049 64.2990321,37.262859 L64.2420034,37.1432402 L64.1833906,37.0268112 L63.467364,35.703827 C62.9865806,34.8162553 62.5081735,33.9294811 62.0329346,33.0403145 L60.609594,30.3736121 L59.1957583,27.702125 C59.0690279,27.4636848 58.9834849,27.2140802 58.9391293,26.9604883 L58.9209118,26.8544263 C58.654778,25.3615833 58.4678507,23.8814997 58.2801313,22.4779722 C58.092412,21.0744446 57.9070688,19.7490681 57.6179651,18.5680315 C57.4722252,17.9763171 57.3027233,17.4204883 57.0999547,16.8957603 C56.895602,16.3710324 56.6587746,15.8774054 56.3839281,15.4013225 C56.1082895,14.926037 55.7914636,14.470688 55.4342423,14.0273009 L55.2980072,13.8622269 L55.1665244,13.7067225 L55.0089035,13.5280917 L54.8481143,13.3470685 C54.6318806,13.1070334 54.4101025,12.8709856 54.1859481,12.6381276 C53.2885387,11.7082906 52.3356847,10.8326808 51.3273861,10.0280449 C50.3190876,9.22340889 49.2577207,8.48496201 48.1575426,7.81589405 C47.0541963,7.14762354 45.9096626,6.55351671 44.7310701,6.0383583 C43.5524776,5.52240243 42.3422025,5.08061024 41.1065813,4.72414614 C38.634547,4.01121794 36.0714251,3.61727328 33.4908779,3.56783083 C32.2006042,3.54071723 30.9087465,3.59255205 29.6263935,3.73290481 C28.985613,3.80228373 28.3480008,3.89319403 27.7127648,4.00483827 C27.0767367,4.11488759 26.4454611,4.2464683 25.8181457,4.39798548 C24.564307,4.70101983 23.3310621,5.09257212 22.1263315,5.55828808 C20.9208088,6.02400404 19.7445925,6.5710608 18.6087715,7.19467361 C17.4721584,7.81748896 16.3727724,8.51207561 15.3240786,9.28082593 C14.2753847,10.0495762 13.2726306,10.8845156 12.3276973,11.7832518 C10.4394147,13.5831163 8.77528642,15.6309906 7.40343011,17.870255 C6.71591782,18.9882923 6.10206757,20.1541771 5.56663173,21.3575425 C5.0288197,22.5601105 4.57021416,23.8001589 4.19635955,25.0681185 C3.81933668,26.336078 3.52548063,27.6319486 3.31954377,28.9445659 C3.11123071,30.2571831 2.98687653,31.586547 2.95044155,32.923088 C2.91163037,34.259629 2.9583622,35.6001573 3.09459735,36.934306 C3.22845631,38.2684546 3.45023447,39.597021 3.75993182,40.9072459 C4.06725298,42.2198631 4.4656616,43.5125439 4.9432767,44.7789085 C5.42168387,46.0460706 5.98801023,47.2829293 6.62799863,48.4846997 C7.27036322,49.6856727 7.99431048,50.8475703 8.79350391,51.9584304 C9.59032115,53.0724804 10.4592163,54.1410752 11.3993973,55.1482658 C11.8682996,55.6530572 12.3577957,56.1395071 12.8583807,56.6163875 C12.9851111,56.7368038 13.1039208,56.8476505 13.2385718,56.9712567 L13.2631258,56.9935855 C13.2734227,57.003155 13.2583734,56.9919906 13.2789671,57.0087372 L13.3352037,57.0589771 L13.4476769,57.1618493 C13.522131,57.2312282 13.595001,57.3022021 13.6662868,57.3739734 C13.9545984,57.6610585 14.2223164,57.97127 14.4646882,58.3022155 C14.9486398,58.9625114 15.3272468,59.7081354 15.5601139,60.49124 C15.6757554,60.8835897 15.756546,61.283914 15.8016937,61.6866307 C15.8238715,61.8867929 15.8389207,62.08855 15.8444652,62.2895096 L15.8412969,62.4418243 C15.8412969,62.4936591 15.842089,62.5494812 15.8405048,62.5909491 L15.8357525,62.8580978 C15.8214953,63.5758107 15.8111984,64.2943211 15.7921889,65.0120341 L15.7399126,67.1643755 C15.7224872,67.881291 15.6979332,68.5998014 15.6773395,69.3175143 L15.6416966,70.3940838 L15.6234791,70.9331659 L15.6131822,71.2019096 L15.6076378,71.3366801 L15.6052616,71.4044641 L15.6036775,71.4371599 C15.5822917,71.5049439 15.6512013,71.3318954 15.5545694,71.5982466 C15.488036,71.6668281 15.377939,71.6692204 15.3098214,71.6022339 C15.2409118,71.5352474 15.2385356,71.425198 15.305069,71.3558191 L15.305069,71.3558191 Z" id="Shape"></path>
                    </g>
                    <g id="noun_35080_cc" transform="translate(28.312225, 71.989247) rotate(40.000000) translate(-28.312225, -71.989247) translate(11.812225, 47.989247)">
                        <path d="M16.1659284,4.03967041 C14.5332243,2.24753097 12.3629651,1.26100193 10.0544346,1.26100193 C7.7454031,1.26100193 5.57464296,2.24808088 3.94193877,4.04022032 C0.571323907,7.73997918 0.571323907,13.7586862 3.94143778,17.4578952 L4.1613694,17.6993033 L5.3441907,17.6993033 L6.68933055,38.5467407 L13.4175347,38.5467407 L14.7631755,17.6987534 L15.9449949,17.6987534 L16.1649265,17.4573453 C17.7976307,15.6652058 18.6968955,13.2830186 18.6968955,10.7485078 C18.6973965,8.21399704 17.7981317,5.83125995 16.1659284,4.03967041 L16.1659284,4.03967041 Z M13.2557171,17.6987534 L12.0172867,36.8959267 L8.09007953,36.8959267 L6.8516491,17.6987534 L13.2557171,17.6987534 L13.2557171,17.6987534 Z M15.3132551,16.0490393 L4.7931092,16.0495892 C2.2220635,12.9789213 2.29270213,8.18375228 5.00502508,5.20711811 C6.35367181,3.72677464 8.14669063,2.91126596 10.0544346,2.91126596 C11.9616776,2.91126596 13.7541954,3.72622473 15.1023411,5.2065682 C16.4509879,6.68691167 17.1939459,8.65502062 17.1939459,10.7485078 C17.193445,12.7298145 16.5286403,14.5989406 15.3132551,16.0490393 L15.3132551,16.0490393 Z" id="Shape" fill="#F1DABD" transform="translate(10.055405, 19.903871) rotate(4.000000) translate(-10.055405, -19.903871) "></path>
                        <path d="M8.98138158,37.1245008 C8.98138158,37.1245008 7.64067401,41.9654783 9.40049734,45.4193263 C11.1603207,48.8731742 15.7504721,49.0775784 22.1365615,42.0946838 C28.5226508,35.1117892 32.957699,29.8755318 32.957699,29.8755318" id="Path-452" stroke="#F1DABD"></path>
                        <path d="M6.28649539,17.3745323 L6,37.6091335 L10.7460001,38 L13.8355973,17.6211023 L6.28649539,17.3745323 Z" id="Path-453" fill="#F1DABD"></path>
                    </g>
                </g>
            </g>
        </g>
    </g>
</svg>