<?xml version="1.0" encoding="UTF-8" standalone="no"?>
<svg width="89px" height="72px" viewBox="0 0 89 72" version="1.1" xmlns="http://www.w3.org/2000/svg" xmlns:xlink="http://www.w3.org/1999/xlink" xmlns:sketch="http://www.bohemiancoding.com/sketch/ns">
    <!-- Generator: Sketch 3.3.2 (12043) - http://www.bohemiancoding.com/sketch -->
    <title>logo_05</title>
    <desc>Created with Sketch.</desc>
    <defs></defs>
    <g id="Home" stroke="none" stroke-width="1" fill="none" fill-rule="evenodd" sketch:type="MSPage">
        <g id="1920*1080" sketch:type="MSArtboardGroup" transform="translate(-1025.000000, -1486.000000)" stroke="#F1DABD" stroke-width="3">
            <g id="活動場地-copy-+-screens7-copy" sketch:type="MSLayerGroup" transform="translate(1026.125000, 1487.894700)">
                <g id="logo_05" transform="translate(0.494995, 0.442000)" sketch:type="MSShapeGroup">
                    <path d="M84.9439276,2.58744505 C84.691494,1.07284307 83.3031088,0.0631084158 81.7885069,0.0631084158 L3.34474604,0.0631084158 C1.83014406,0.0631084158 0.44175891,1.07284307 0.189325247,2.58744505 C-0.126216832,4.54380594 1.32527673,6.24773316 3.15542079,6.24773316 L2.71366188,6.24773316 L2.71366188,35.9086886 L2.71366188,35.9086886 L16.7237302,35.9086886 L16.7237302,35.9086886 L23.3501138,28.0201366 C24.4229569,26.0006673 25.4958,24.0443064 26.6317515,22.0248371 L29.8502807,11.4857317 L29.9133891,11.4857317 L39.9476272,15.5246703 C42.0302049,16.3450797 44.3652163,16.3450797 46.3846856,15.5246703 L56.608249,11.4226233 L56.6713574,11.4226233 L59.8898866,23.9180896 C60.2054287,25.1171495 60.8365128,26.1899926 61.6569222,27.0735104 L70.4921004,35.9086886 L70.4921004,35.9086886 L82.6720247,35.9086886 L82.6720247,35.9086886 L82.6720247,6.24773316 L81.8516153,6.24773316 C83.8079762,6.24773316 85.2594697,4.54380594 84.9439276,2.58744505 L84.9439276,2.58744505 Z" id="Shape"></path>
                    <path d="M2.3981198,38.3699168 L14.3887188,38.3699168 C14.3887188,38.3699168 17.9227901,44.175891 18.2383322,46.6371193 C18.2383322,46.6371193 11.990599,48.4041549 10.9808643,60.0161034 L2.3981198,60.0161034 L2.3981198,38.3699168 L2.3981198,38.3699168 Z" id="Shape"></path>
                    <path d="M82.9875668,38.3699168 L70.9969678,38.3699168 C70.9969678,38.3699168 67.4628965,44.175891 67.1473544,46.6371193 C67.1473544,46.6371193 73.3950876,48.4041549 74.4048222,60.0161034 L82.9875668,60.0161034 L82.9875668,38.3699168 L82.9875668,38.3699168 Z" id="Shape"></path>
                    <path d="M37.6126158,59.0161034 L37.6126158,56.2732376 L37.5495074,54.2732376 C37.5495074,51.8751178 35.5931465,49.8556485 33.2581351,49.8556485 L22.5297044,49.8556485 C20.1315846,49.8556485 18.2383322,51.8120094 18.2383322,54.2732376 L18.2383322,59.0161034" id="Shape"></path>
                    <path d="M63.9288252,59.0161034 L63.9288252,56.2732376 L63.8657168,54.2732376 C63.8657168,51.8751178 61.9093559,49.8556485 59.5743445,49.8556485 L48.8459138,49.8556485 C46.447794,49.8556485 44.5545415,51.8120094 44.5545415,54.2732376 L44.5545415,59.0161034" id="Shape"></path>
                    <path d="M72.9533286,62.3511148 C72.9533286,59.952995 70.9969678,57.9335257 68.6619564,57.9335257 L57.9335257,57.9335257 C55.5354059,57.9335257 53.6421534,59.8898866 53.6421534,62.3511148 L53.6421534,68.0939806 L73.0164371,68.0939806 L73.0164371,62.3511148 L72.9533286,62.3511148 Z" id="Shape"></path>
                    <path d="M32.2484005,62.3511148 C32.2484005,59.952995 30.2920396,57.9335257 27.9570282,57.9335257 L17.2285975,57.9335257 C14.8304777,57.9335257 12.9372252,59.8898866 12.9372252,62.3511148 L12.9372252,68.0939806 L32.3115089,68.0939806 L32.3115089,62.3511148 L32.2484005,62.3511148 Z" id="Shape"></path>
                    <path d="M49.2245643,57.9335257 L36.9184232,57.9335257 C34.2047614,57.9335257 31.9959668,59.8898866 31.9959668,62.3511148 L31.9959668,68.0939806 L54.0839123,68.0939806 L54.0839123,62.3511148 C54.1470207,59.952995 51.9382262,57.9335257 49.2245643,57.9335257 Z" id="Shape"></path>
                </g>
            </g>
        </g>
    </g>
</svg>