<?xml version="1.0" encoding="UTF-8"?>
<svg width="500px" height="500px" viewBox="-500 -500 1000 1000" version="1.1" xmlns="http://www.w3.org/2000/svg" xmlns:xlink="http://www.w3.org/1999/xlink">
	<defs>
		<linearGradient x1="50%" y1="0%" x2="50%" y2="88.2573342%" id="linearGradient-3">
			<stop stop-color="#FAB329" offset="0%"></stop>
			<stop stop-color="#BC6C27" offset="100%"></stop>
		</linearGradient>
		<linearGradient x1="50%" y1="0%" x2="50%" y2="88.2573342%" id="linearGradient-4">
			<stop stop-color="#FEFBD9" offset="0%"></stop>
			<stop stop-color="#F6C337" offset="100%"></stop>
		</linearGradient>
	</defs>
	<!--
	<line x1="0" x2="0" y1="-1000" y2="1000" stroke="#000" />
	<line y1="0" y2="0" x1="-1000" x2="1000" stroke="#000" />
	<circle r="400" cx="0" cy="0" stroke="#000" fill="none" />
	-->
	<g transform="translate(-334,-395),scale(8)">
		<g>
			<path fill="#833200" d="M13.4787868,7.21871173 L13.4787868,8.8546464 C13.4787868,10.6335754 7.74656839,13.8194481 2.60235276,15.5653784 L0.894447282,16.1463552 L0.892289474,17.6342958 L0.892289474,54.3338302 C0.892289474,67.0123239 7.72606921,78.8668505 20.6524214,88.6144613 C30.317246,95.9031702 39.887127,99.4280295 40.2906372,99.5750236 L41.4450648,99.9960068 L42.5994924,99.5760235 C43.0019237,99.4300294 52.5707258,95.9041702 62.2377081,88.6154612 C75.1640604,78.8678505 81.9967612,67.0123239 81.9967612,54.3348302 L81.9967612,16.1483551 L80.2866979,15.5663784 C75.1414034,13.8194481 69.4102638,10.6335754 69.4102638,8.85564636 L69.4102638,7.21871173 L41.4450648,0 L40.5894937,0.220991175 L13.4787868,7.21871173 Z M41.4450648,4.71681164 C42.941505,5.10279623 61.574182,9.91260415 64.2088663,10.592577 C65.880089,14.6064167 72.8379427,17.7202924 76.4037214,19.0832379 L76.4037214,54.3348302 C76.4037214,65.8633698 70.3931456,76.2649544 58.5338297,85.2485957 C51.3990357,90.6533799 44.1800871,93.8952504 41.4450648,95.0262052 C38.7111213,93.8952504 31.4932517,90.6533799 24.3573787,85.2485957 C12.4991418,76.2649544 6.48640818,65.8633698 6.48640818,54.3348302 L6.48640818,19.0832379 C10.0521868,17.7202924 17.0121984,14.6064167 18.6812633,10.592577 C21.3159476,9.91260415 39.9497034,5.10279623 41.4450648,4.71681164 L41.4450648,4.71681164 Z" />
			<path d="M41.5394737,4.66 L17.8195451,10.66 C17.8195451,10.66 11.0424227,17.16 5.39482064,18.66 L5.39482064,49.66 C5.39482064,49.66 5.40316263,52.906341 5.39482064,56.16 C5.39123028,57.5603652 5.4902386,65.1474122 8.21862174,69.66 C9.28190368,71.4186068 14.615671,77.9569544 21.4999996,83.4999963 C28.5746011,89.19624 37.2460357,93.8929614 41.5394737,95.16 L41.5394737,4.66 Z" fill="url(#linearGradient-3)"></path>
			<path d="M41.5394737,4.75 L65.2594022,10.75 C65.2594022,10.75 72.0365247,17.25 77.6841267,18.75 L77.6841267,49.75 C77.6841267,49.75 77.6757847,52.996341 77.6841267,56.25 C77.6877171,57.6503652 77.720651,64 74.8603256,69.75 C73.4225659,72.6402721 67.4578479,79.1322959 60.4999995,84.5 C53.6156812,89.8109786 45.752675,94.00664 41.5394737,95.25 L41.5394737,4.75 Z" fill="url(#linearGradient-4)"></path>
		</g>
		<g transform="translate(14, 22.41)">
			<path d="M37.8451613,29.4451613 L31.6129032,33.4193548 L41.7290323,39.3806452 L27.5483871,47.8709677 L14.4516129,40.283871 L55.2774194,15.8967742 L26.4645161,0 L0,14.9935484 L17.7935484,25.2903226 L23.9354839,21.4967742 L13.2774194,15.4451613 L27.5483871,7.49677419 L41.7290323,14.9935484 L0.903225806,39.3806452 L27.5483871,55.3677419 L55.2774194,39.3806452 L37.8451613,29.4451613 Z" fill="#FFFBFB"></path>
			<path d="M16.2580645,26.1935484 L25.8322581,20.2322581" fill="#5D5D5D"></path>
		</g>
	</g>
</svg>