<?xml version="1.0" encoding="UTF-8" standalone="no"?>
<svg width="100px" height="40px" viewBox="0 0 100 40" version="1.1" xmlns="http://www.w3.org/2000/svg" xmlns:xlink="http://www.w3.org/1999/xlink" xmlns:sketch="http://www.bohemiancoding.com/sketch/ns">
    <!-- Generator: Sketch 3.3.2 (12043) - http://www.bohemiancoding.com/sketch -->
    <title>bus</title>
    <desc>Created with Sketch.</desc>
    <defs></defs>
    <g id="交通" stroke="none" stroke-width="1" fill="none" fill-rule="evenodd" sketch:type="MSPage">
        <g sketch:type="MSArtboardGroup" id="bus" fill="#000000">
            <g sketch:type="MSLayerGroup" transform="translate(4.974366, 2.625213)">
                <path d="M88.5971516,5.51828624 C87.7268147,2.4725688 85.5505112,2.76883404 85.5505112,2.76883404 L15.0643031,2.76883404 C11.5838787,2.76883404 10.1523915,3.91605427 10.1523915,3.91605427 L10.1523915,4.78546816 C5.53766808,10.877826 6.51691238,28.0639789 6.51691238,28.0639789 C6.51691238,30.2393595 8.97286817,30.4571744 8.97286817,30.4571744 L18.5456504,30.4571744 L18.6896298,30.4571744 C18.5973353,30.0363116 18.5456504,29.6006818 18.5456504,29.1521306 C18.5456504,25.7870743 21.2729519,23.0597728 24.6370853,23.0597728 C28.0012186,23.0597728 30.7285202,25.7870743 30.7285202,29.1521306 C30.7285202,29.6006818 30.6768353,30.0363116 30.5845408,30.4571744 L60.0237072,30.4571744 C59.9314128,30.0363116 59.8797279,29.6006818 59.8797279,29.1521306 C59.8797279,25.7870743 62.6070294,23.0597728 65.9720857,23.0597728 C69.337142,23.0597728 72.0644435,25.7870743 72.0644435,29.1521306 C72.0644435,29.6006818 72.0118357,30.0363116 71.9204641,30.4571744 L87.7277377,30.4571744 L89.0327814,29.9532466 C90.3369023,17.334747 88.5971516,5.51828624 88.5971516,5.51828624 L88.5971516,5.51828624 Z M16.6130042,16.6130042 L9.40849806,16.6130042 C9.40849806,16.6130042 9.40849806,11.0753362 11.1491717,7.38355743 L16.6130042,7.38355743 L16.6130042,16.6130042 L16.6130042,16.6130042 Z M72.9126297,4.35076122 C72.9126297,4.35076122 73.6057611,4.354453 74.0552352,4.35722183 C75.1313887,4.36368244 76.1069412,4.37014306 77.1812488,4.35537594 C78.4844467,4.33783999 79.7341138,4.36183655 81.0373117,4.34060883 C81.9639481,4.32584171 82.8647421,4.3193811 83.7913786,4.3110746 C84.2666951,4.30645987 84.7290904,4.30092221 85.203484,4.29538454 C85.5578947,4.29076981 85.987064,4.26031264 86.2482573,4.55011727 C86.5002212,4.82884656 86.5057589,5.22294394 86.4845312,5.57643175 C86.4762247,5.71118168 86.386699,7.38355743 86.4217709,7.38355743 L72.9126297,7.38355743 L72.9126297,4.35076122 L72.9126297,4.35076122 Z M35.9948425,14.7671149 L19.3818383,14.7671149 L19.3818383,4.6147234 L35.9948425,4.6147234 L35.9948425,14.7671149 L35.9948425,14.7671149 Z M53.5307914,14.7671149 L36.9177872,14.7671149 L36.9177872,4.6147234 L53.5307914,4.6147234 L53.5307914,14.7671149 L53.5307914,14.7671149 Z M71.989685,14.7671149 L54.4537361,14.7671149 L54.4537361,4.6147234 L71.989685,4.6147234 L71.989685,14.7671149 L71.989685,14.7671149 Z M86.7567999,13.8441702 L72.9126297,13.8441702 L72.9126297,8.26681549 C72.9126297,8.26681549 73.591917,8.27604494 74.0358533,8.26958433 C75.1120068,8.25297132 76.0884823,8.25020249 77.1646358,8.26035488 C78.4715255,8.27419905 79.7285761,8.2834285 81.0345428,8.27973672 C82.2076055,8.275122 83.3529799,8.26035488 84.5251196,8.24281893 C85.0225868,8.23543537 85.5209769,8.22066826 86.0184441,8.24466482 C86.403312,8.26404666 86.5297555,8.49662872 86.6534301,8.8473477 C86.7411098,9.09285098 86.7567999,9.31066593 86.7567999,9.57185927 L86.7567999,13.8441702 L86.7567999,13.8441702 Z" id="Shape" sketch:type="MSShapeGroup"></path>
                <path d="M12.4237583,6.20034236 C12.4237583,6.20034236 13.7444922,6.7134996 14.1791991,5.84223982 C14.1791991,5.84223982 14.6286732,4.6147234 12.8889224,4.6147234 L5.49244379,4.6147234 C5.49244379,4.6147234 1.14168257,4.80946472 0.70605268,7.85518217 C0.70605268,7.85518217 0.270422791,10.8898243 0.70605268,12.194868 C0.70605268,12.194868 1.14075962,12.6240373 1.57638951,10.4477338 C1.57638951,10.4477338 1.98156223,9.13992116 1.98156223,7.83395444 C1.98156223,7.83395444 1.84588936,6.96177172 3.69177872,6.96177172 L3.69177872,6.09143488 C3.69177872,6.09143488 9.7047633,4.56857616 12.4237583,6.20034236 L12.4237583,6.20034236 Z" id="Shape" sketch:type="MSShapeGroup"></path>
                <path d="M38.5597058,1.84588936 C38.5597058,1.84588936 38.5597058,0 40.3003794,0 L68.1465433,0 C68.1465433,0 69.0168802,0 69.88814,1.84588936 L38.5597058,1.84588936 L38.5597058,1.84588936 Z" id="Shape" sketch:type="MSShapeGroup"></path>
                <path d="M65.9905446,23.9965617 C63.1875616,23.9965617 60.9143488,26.2697744 60.9143488,29.0727574 C60.9143488,31.8757404 63.1875616,34.1489531 65.9905446,34.1489531 C68.7935276,34.1489531 71.0667403,31.8757404 71.0667403,29.0727574 C71.0667403,26.2697744 68.7935276,23.9965617 65.9905446,23.9965617 L65.9905446,23.9965617 Z M65.9905446,32.3030638 C64.2064925,32.3030638 62.7602382,30.8568095 62.7602382,29.0727574 C62.7602382,27.2887053 64.2064925,25.842451 65.9905446,25.842451 C67.7745966,25.842451 69.220851,27.2887053 69.220851,29.0727574 C69.220851,30.8568095 67.7745966,32.3030638 65.9905446,32.3030638 L65.9905446,32.3030638 Z" id="Shape" sketch:type="MSShapeGroup"></path>
                <path d="M24.458034,23.9965617 C21.6541281,23.9965617 19.3818383,26.2697744 19.3818383,29.0727574 C19.3818383,31.8757404 21.6541281,34.1489531 24.458034,34.1489531 C27.2619399,34.1489531 29.5342297,31.8757404 29.5342297,29.0727574 C29.5342297,26.2697744 27.2619399,23.9965617 24.458034,23.9965617 L24.458034,23.9965617 Z M24.458034,32.3030638 C22.6739819,32.3030638 21.2277276,30.8568095 21.2277276,29.0727574 C21.2277276,27.2887053 22.6739819,25.842451 24.458034,25.842451 C26.2420861,25.842451 27.6883404,27.2887053 27.6883404,29.0727574 C27.6883404,30.8568095 26.2420861,32.3030638 24.458034,32.3030638 L24.458034,32.3030638 Z" id="Shape" sketch:type="MSShapeGroup"></path>
            </g>
        </g>
    </g>
</svg>