<?xml version="1.0" encoding="UTF-8" standalone="no"?>
<svg width="100px" height="40px" viewBox="0 0 100 40" version="1.1" xmlns="http://www.w3.org/2000/svg" xmlns:xlink="http://www.w3.org/1999/xlink" xmlns:sketch="http://www.bohemiancoding.com/sketch/ns">
    <!-- Generator: Sketch 3.3.2 (12043) - http://www.bohemiancoding.com/sketch -->
    <title>mrt</title>
    <desc>Created with Sketch.</desc>
    <defs></defs>
    <g id="交通" stroke="none" stroke-width="1" fill="none" fill-rule="evenodd" sketch:type="MSPage">
        <g sketch:type="MSArtboardGroup" id="traffic_01" fill="#000000">
            <g sketch:type="MSLayerGroup" transform="translate(9.634339, 3.935917)">
                <rect id="Rectangle-path" sketch:type="MSShapeGroup" x="2.497" y="30.932" width="75.219" height="0.903"></rect>
                <g id="Group" transform="translate(1.000000, 0.000000)" sketch:type="MSShapeGroup">
                    <path d="M10.712,5.272 C10.712,3.775 11.644,2.559 12.798,2.559 L18.655,2.559 C19.812,2.559 20.744,3.775 20.744,5.272 L20.744,12.862 C20.744,14.359 19.811,15.569 18.655,15.569 L12.798,15.569 C11.644,15.569 10.712,14.359 10.712,12.862 L10.712,5.272 L10.712,5.272 Z M26.357,5.272 C26.357,3.775 27.295,2.559 28.452,2.559 L34.303,2.559 C35.46,2.559 36.399,3.775 36.399,5.272 L36.399,12.862 C36.399,14.359 35.46,15.569 34.303,15.569 L28.452,15.569 C27.295,15.569 26.357,14.359 26.357,12.862 L26.357,5.272 L26.357,5.272 Z M39.043,0.164 L6.598,0.164 C3.071,0.164 3.271,3.033 3.271,6.551 L3.271,19.786 L38.37,19.786 L39.043,0.164 Z" id="Shape"></path>
                    <path d="M38.37,21.382 L3.271,21.382 C3.258,24.626 3.271,27.177 6.598,27.177 L38.457,27.177" id="Shape"></path>
                    <path d="M9.049,27.987 C9.52,29.409 10.861,30.438 12.445,30.438 C13.022,30.438 13.565,30.307 14.042,30.064 C13.564,29.49 13.243,28.773 13.15,27.987 L9.049,27.987 L9.049,27.987 Z" id="Shape"></path>
                    <path d="M13.135,27.189 C13.238,25.954 13.896,24.881 14.865,24.219 C14.226,23.64 13.378,23.278 12.445,23.278 C10.471,23.278 8.868,24.882 8.868,26.864 C8.868,26.971 8.874,27.083 8.887,27.189 L13.135,27.189 L13.135,27.189 Z" id="Shape"></path>
                    <path d="M20.364,27.189 C20.282,25.467 18.857,24.088 17.108,24.088 C15.358,24.088 13.939,25.467 13.849,27.189 L20.364,27.189 L20.364,27.189 Z" id="Shape"></path>
                    <path d="M13.905,27.987 C14.198,29.49 15.52,30.619 17.105,30.619 C18.695,30.619 20.017,29.49 20.311,27.987 L13.905,27.987 L13.905,27.987 Z" id="Shape"></path>
                    <path d="M67.371,12.856 C67.371,14.359 66.435,15.569 65.289,15.569 L59.426,15.569 C58.273,15.569 57.343,14.359 57.343,12.856 L57.343,5.278 C57.343,3.775 58.273,2.565 59.426,2.565 L65.289,2.565 C66.435,2.565 67.371,3.775 67.371,5.278 L67.371,12.856 L67.371,12.856 Z M51.729,12.856 C51.729,14.359 50.788,15.569 49.633,15.569 L43.783,15.569 C42.622,15.569 41.686,14.359 41.686,12.856 L41.686,5.278 C41.686,3.775 42.622,2.565 43.783,2.565 L49.633,2.565 C50.787,2.565 51.729,3.775 51.729,5.278 L51.729,12.856 L51.729,12.856 Z M38.208,19.786 L74.814,19.786 L74.814,6.557 C74.814,3.027 75.012,0.17 71.489,0.17 L39.043,0.17 L38.208,19.786 Z" id="Shape"></path>
                    <path d="M37.733,27.183 L71.488,27.183 C74.813,27.183 74.825,24.626 74.813,21.382 L38.07,21.382" id="Shape"></path>
                    <path d="M64.934,27.987 C64.847,28.773 64.529,29.49 64.042,30.064 C64.516,30.307 65.064,30.438 65.639,30.438 C67.222,30.438 68.57,29.409 69.032,27.987 L64.934,27.987 L64.934,27.987 Z" id="Shape"></path>
                    <path d="M64.952,27.189 L69.206,27.189 C69.212,27.077 69.219,26.971 69.219,26.864 C69.219,24.882 67.615,23.278 65.639,23.278 C64.709,23.278 63.855,23.633 63.218,24.219 C64.191,24.882 64.853,25.96 64.952,27.189 L64.952,27.189 Z" id="Shape"></path>
                    <path d="M64.235,27.189 C64.153,25.467 62.725,24.088 60.973,24.088 C59.226,24.088 57.804,25.467 57.716,27.189 L64.235,27.189 L64.235,27.189 Z" id="Shape"></path>
                    <path d="M57.773,27.987 C58.066,29.49 59.388,30.619 60.973,30.619 C62.562,30.619 63.885,29.49 64.178,27.987 L57.773,27.987 L57.773,27.987 Z" id="Shape"></path>
                    <path d="M76.315,18.932 C76.315,19.406 76.166,19.792 75.985,19.792 C75.816,19.792 75.667,19.405 75.667,18.932 L75.667,4.811 C75.667,4.343 75.816,3.956 75.985,3.956 C76.166,3.956 76.315,4.343 76.315,4.811 L76.315,18.932 L76.315,18.932 Z" id="Shape"></path>
                    <path d="M77.532,18.932 C77.532,19.406 77.388,19.792 77.207,19.792 C77.039,19.792 76.89,19.405 76.89,18.932 L76.89,4.811 C76.89,4.343 77.039,3.956 77.207,3.956 C77.389,3.956 77.532,4.343 77.532,4.811 L77.532,18.932 L77.532,18.932 Z" id="Shape"></path>
                    <path d="M1.207,18.932 C1.207,19.406 1.061,19.792 0.883,19.792 C0.711,19.792 0.565,19.405 0.565,18.932 L0.565,4.811 C0.565,4.343 0.711,3.956 0.883,3.956 C1.061,3.956 1.207,4.343 1.207,4.811 L1.207,18.932 L1.207,18.932 Z" id="Shape"></path>
                    <path d="M2.429,18.932 C2.429,19.406 2.283,19.792 2.105,19.792 C1.93,19.792 1.784,19.405 1.784,18.932 L1.784,4.811 C1.784,4.343 1.93,3.956 2.105,3.956 C2.283,3.956 2.429,4.343 2.429,4.811 L2.429,18.932 L2.429,18.932 Z" id="Shape"></path>
                </g>
                <rect id="Rectangle-path" sketch:type="MSShapeGroup" x="74.771" y="23.348" width="3.269" height="2.357"></rect>
                <rect id="Rectangle-path" sketch:type="MSShapeGroup" x="78.856" y="22.792" width="1.129" height="3.474"></rect>
                <rect id="Rectangle-path" sketch:type="MSShapeGroup" x="2.054" y="23.348" width="3.271" height="2.357"></rect>
                <rect id="Rectangle-path" sketch:type="MSShapeGroup" x="0.151" y="22.792" width="1.129" height="3.474"></rect>
            </g>
        </g>
    </g>
</svg>