<?xml version="1.0" encoding="UTF-8" standalone="no"?>
<svg width="100px" height="40px" viewBox="0 0 100 40" version="1.1" xmlns="http://www.w3.org/2000/svg" xmlns:xlink="http://www.w3.org/1999/xlink" xmlns:sketch="http://www.bohemiancoding.com/sketch/ns">
    <!-- Generator: Sketch 3.3.2 (12043) - http://www.bohemiancoding.com/sketch -->
    <title>car</title>
    <desc>Created with Sketch.</desc>
    <defs></defs>
    <g id="交通" stroke="none" stroke-width="1" fill="none" fill-rule="evenodd" sketch:type="MSPage">
        <g sketch:type="MSArtboardGroup" id="car_02" fill="#000000">
            <g sketch:type="MSLayerGroup" transform="translate(49.799944, 19.908917) scale(-1, 1) translate(-193.299944, -1754.908917) translate(150.134339, 1741.000000)">
                <path d="M72.9019099,15.3477705 C76.3551583,15.3477705 79.1369417,18.1295539 79.1369417,21.5828023 C79.2328652,24.6523564 76.7388525,27.6259869 73.1896806,27.6259869 C69.8323558,27.6259869 67.0505724,24.9401271 67.0505724,21.3909551 C66.9546488,17.8417832 69.8323558,15.3477705 72.9019099,15.3477705 L72.9019099,15.3477705 Z" id="Shape" sketch:type="MSShapeGroup"></path>
                <path d="M17.2662418,15.3477705 C20.6235666,15.3477705 23.3094265,17.9377068 23.3094265,21.4868787 C23.3094265,24.9401271 20.6235666,27.6259869 17.2662418,27.6259869 C13.908917,27.6259869 11.3189807,25.0360506 11.2230572,21.4868787 C11.3189807,18.0336303 13.908917,15.3477705 17.2662418,15.3477705 L17.2662418,15.3477705 Z" id="Shape" sketch:type="MSShapeGroup"></path>
                <path d="M0.287770697,18.321401 C0.0959235657,18.6091717 0.0959235657,18.8969424 0.287770697,19.1847131 C0.575541394,19.7602545 0.767388525,20.2398724 0.959235657,20.8154138 C1.05515922,20.9113373 1.05515922,21.1031844 1.15108279,21.199108 C1.43885349,21.3909551 1.53477705,21.7746494 1.63070062,22.0624201 C1.72662418,22.1583437 1.72662418,22.2542672 1.82254775,22.3501908 C3.26140123,23.40535 4.98802542,23.40535 6.7146496,23.7890443 C7.57796169,23.9808914 8.34535021,23.9808914 9.2086623,24.076815 C9.40050944,24.076815 9.496433,23.0216558 9.40050944,22.5420379 C9.40050944,22.2542672 9.496433,22.0624201 9.496433,21.7746494 L9.496433,21.5828023 C9.59235657,17.1703183 12.9496814,13.7170699 17.1703183,13.7170699 C20.2398724,13.7170699 22.8298086,15.4436941 24.076815,18.0336303 C24.076815,18.0336303 24.076815,18.0336303 24.076815,18.1295539 C24.1727386,18.2254775 24.1727386,18.4173246 24.2686621,18.5132482 C25.1319742,20.6235666 25.0360506,22.7338851 24.8442035,22.9257322 C24.6523564,23.6931207 24.4605092,24.5564328 24.3645857,25.1319742 C24.2686621,25.5156685 24.5564328,25.8034392 24.9401271,25.8034392 C25.9952863,25.7075156 28.1056047,25.5156685 30.3118468,25.3238213 C42.1104453,25.3238213 53.8131203,25.2278978 65.7076425,25.2278978 C65.8994896,24.9401271 65.8035661,25.0360506 65.9954132,24.7482799 C65.6117189,23.9808914 65.3239482,22.4461144 65.3239482,21.5828023 C65.4198718,17.1703183 68.7771966,13.7170699 72.9978335,13.7170699 C77.2184704,13.7170699 80.6717187,17.0743947 80.6717187,21.4868787 L80.6717187,21.4868787 C80.6717187,22.5420379 80.4798716,23.40535 80.2880245,23.8849679 C80.1921009,24.1727386 80.383948,24.3645857 80.5757952,24.3645857 C81.4391073,24.3645857 82.3983429,24.3645857 83.261655,24.076815 C83.6453493,23.9808914 84.0290435,23.9808914 84.4127378,23.8849679 C84.8923556,23.7890443 84.9882792,23.5971972 84.9882792,23.1175793 L84.9882792,22.9257322 C85.3719735,22.0624201 85.467897,21.199108 85.5638206,20.3357959 C85.5638206,20.1439488 85.5638206,19.9521017 85.6597441,19.7602545 C86.139362,19.4724838 86.139362,19.4724838 86.139362,18.992866 C86.139362,18.5132482 86.2352855,18.1295539 86.2352855,17.6499361 C86.2352855,17.2662418 86.0434384,16.9784711 85.7556677,16.786624 C85.3719735,16.5947769 84.8923556,16.4029297 84.5086614,16.2110826 L84.5086614,16.0192355 L84.5086614,14.7722291 C84.6045849,13.4292992 83.93312,12.6619107 82.8779607,12.0863693 C82.3024193,11.7985986 81.726878,11.6067514 81.1513366,11.4149043 C79.9043302,11.1271336 75.6836933,9.97605083 74.7244577,9.7842037 C73.1896806,9.496433 71.55898,9.30458587 69.9282794,9.11273874 C68.2016552,8.92089161 66.5709546,8.82496804 64.8443304,8.63312091 C64.1728654,8.53719735 63.5014005,8.53719735 62.734012,8.63312091 C62.2543941,8.63312091 61.8706999,8.53719735 61.4870056,8.34535021 C58.2256044,6.4268789 49.4006363,2.39808914 48.4414007,1.91847131 C46.8107,1.15108279 44.9881523,0.863312091 43.2615281,0.575541394 C42.1104453,0.383694263 40.9593625,0.383694263 39.8082798,0.383694263 C35.8754136,0.383694263 31.9425474,0.383694263 28.0096812,0.767388525 C26.3789806,0.959235657 24.7482799,1.15108279 23.1175793,1.53477705 C21.3909551,1.91847131 19.664331,2.7817834 18.0336303,3.3573248 C15.8273883,4.22063689 13.7170699,5.27579611 11.5108279,6.23503177 C10.3597451,7.00242029 7.57796169,7.67388525 4.79617828,7.67388525 L2.58993627,7.67388525 C2.39808914,7.67388525 2.20624201,7.67388525 2.01439488,7.76980882 C1.82254775,7.86573239 1.63070062,7.96165595 1.72662418,8.24942665 C2.11031844,9.7842037 1.91847131,11.3189807 1.63070062,12.8537578 C1.53477705,13.4292992 1.53477705,14.0048406 1.53477705,14.6763055 L1.53477705,14.9640762 C1.34292992,15.0599998 1.05515922,15.0599998 0.863312091,15.1559234 C0.287770697,15.3477705 -1.28508315e-14,15.9233119 0.0959235657,16.4988533 C0.191847131,16.9784711 0.287770697,17.458089 0.383694263,17.9377068 C0.383694263,17.9377068 0.383694263,18.1295539 0.287770697,18.321401 L0.287770697,18.321401 Z M34.3406365,1.91847131 C36.1631843,1.72662418 38.8490441,1.72662418 40.863439,1.82254775 C42.7819103,1.91847131 44.604458,2.20624201 46.4270058,2.7817834 C48.0577064,3.3573248 54.5805089,6.81057316 54.5805089,6.81057316 C54.772356,6.90649673 54.8682796,7.00242029 55.0601267,7.09834386 L55.0601267,7.09834386 L54.772356,7.09834386 C54.6764324,7.09834386 54.5805089,7.19426743 54.3886617,7.29019099 L54.3886617,7.29019099 C54.1968146,7.19426743 54.100891,7.19426743 53.9090439,7.19426743 L53.9090439,7.19426743 C53.8131203,7.19426743 52.9498083,6.81057316 52.7579611,7.48203812 C52.7579611,7.57796169 52.566114,8.05757952 52.566114,8.34535021 C52.566114,9.01681517 53.0457318,9.40050944 53.0457318,9.40050944 L53.0457318,9.40050944 C52.9498083,9.59235657 52.8538847,9.7842037 52.7579611,9.97605083 C52.3742669,9.97605083 42.398216,9.68828013 35.77949,9.59235657 L33.8610187,2.87770697 C33.8610187,2.39808914 34.0528658,1.91847131 34.3406365,1.91847131 L34.3406365,1.91847131 Z M17.1703183,7.38611456 C17.1703183,6.81057316 17.9377068,6.23503177 18.1295539,6.1391082 C18.6091717,5.75541394 20.9113373,4.70025472 23.9808914,3.45324836 C26.4749041,2.39808914 29.8322289,2.39808914 31.0792353,2.20624201 C31.367006,2.20624201 31.5588531,2.39808914 31.5588531,2.58993627 L32.1343945,9.30458587 C30.7914646,9.30458587 18.8969424,9.01681517 18.6091717,9.01681517 C18.2254775,9.01681517 17.2662418,8.53719735 17.1703183,7.38611456 L17.1703183,7.38611456 Z" id="Shape" sketch:type="MSShapeGroup"></path>
            </g>
        </g>
    </g>
</svg>